<svg width="100" height="100" xmlns="http://www.w3.org/2000/svg">
    <path d="m49.999998,10.015625c-22.071374,0 -39.984373,17.912999 -39.984373,39.984373s17.912999,39.984373 39.984373,39.984373s39.984373,-17.912999 39.984373,-39.984373s-17.912999,-39.984373 -39.984373,-39.984373zm0,57.97734c-9.956109,0 -17.992968,-8.036859 -17.992968,-17.992968s8.036859,-17.992968 17.992968,-17.992968s17.992968,8.036859 17.992968,17.992968s-8.036859,17.992968 -17.992968,17.992968zm0,-21.991405c-2.19914,0 -3.998437,1.799297 -3.998437,3.998437s1.799297,3.998437 3.998437,3.998437s3.998437,-1.799297 3.998437,-3.998437s-1.799297,-3.998437 -3.998437,-3.998437z" fill="#222"/>
</svg>